<?xml version="1.0" encoding="utf-8"?>
<!-- Designed by Vexels.com - 2016 All Rights Reserved - https://vexels.com/terms-and-conditions/  -->

<svg version="1.0" id="Capa_1" xmlns="http://www.w3.org/2000/svg" xmlns:xlink="http://www.w3.org/1999/xlink" x="0px" y="0px"
	 width="1200px" height="1200px" viewBox="0 0 1200 1200" enable-background="new 0 0 1200 1200" xml:space="preserve">
<g>
	<path fill="#414042" d="M906.451,177.672C671.711,9.537,344.175,62.253,174.92,295.481
		C5.672,528.749,58.773,854.162,293.499,1022.323c234.778,168.148,562.283,115.419,731.582-117.822
		C1194.329,671.247,1141.235,345.847,906.451,177.672z M344.92,951.503C149.51,811.546,105.307,540.695,246.169,346.554
		C387.069,152.415,659.677,108.51,855.1,248.48c195.391,139.97,239.587,410.82,98.681,604.948
		C812.926,1047.568,540.313,1091.486,344.92,951.503z"/>
	<path fill="#414042" d="M657.73,601.173c3.906,32.326-19.292,61.617-51.807,65.446c-32.552,3.843-61.995-19.24-65.888-51.514
		c-3.881-32.262,19.392-61.592,51.856-65.422C624.393,545.815,653.886,568.924,657.73,601.173z"/>
	<path fill="#414042" d="M637.503,735.581c-4.249-7.409,1.036-18.306,11.706-24.298l0,0c10.72-6.055,22.83-4.917,27.053,2.504
		l101.647,178.288c4.197,7.42-1.087,18.305-11.757,24.386l0,0c-10.746,5.941-22.857,4.842-27.004-2.541L637.503,735.581z"/>
	<path fill="#414042" d="M600.36,509.483c1.366,11.288-7.458,21.604-19.683,23.058l0,0c-12.211,1.442-23.222-6.523-24.588-17.811
		l-32.591-272.002c-1.377-11.277,7.433-21.617,19.696-23.033l0,0c12.237-1.478,23.198,6.523,24.576,17.813L600.36,509.483z"/>
</g>
</svg>
